REM DIRINDEX 1\2\3,1\2\4,1\2\5,1\2\6
REM DIRNAME cjc157,folder01,folder02,folder03,folder04,folder05
TITLE ""
FILE "157 157.mp3" MP3
  TRACK 01 AUDIO
    TITLE "0:"
    INDEX 01 00:00:00
  TRACK 02 AUDIO
    TITLE "3:cjc157_5760"
    INDEX 01 00:00:11
  TRACK 03 AUDIO
    TITLE "0:"
    INDEX 01 00:01:48
  TRACK 04 AUDIO
    TITLE "4:cjc157_5761"
    INDEX 01 00:02:20
  TRACK 05 AUDIO
    TITLE "0:"
    INDEX 01 00:03:53
  TRACK 06 AUDIO
    TITLE "5:cjc157_5762"
    INDEX 01 00:04:23
  TRACK 07 AUDIO
    TITLE "0:"
    INDEX 01 00:06:51
  TRACK 08 AUDIO
    TITLE "3:cjc157_5763"
    INDEX 01 00:07:27
  TRACK 09 AUDIO
    TITLE "0:"
    INDEX 01 00:09:00
  TRACK 10 AUDIO
    TITLE "4:cjc157_5764"
    INDEX 01 00:09:45
  TRACK 11 AUDIO
    TITLE "0:"
    INDEX 01 00:11:11
  TRACK 12 AUDIO
    TITLE "5:cjc157_5765"
    INDEX 01 00:11:52
  TRACK 13 AUDIO
    TITLE "0:"
    INDEX 01 00:15:03
  TRACK 14 AUDIO
    TITLE "3:cjc157_5766"
    INDEX 01 00:15:48
  TRACK 15 AUDIO
    TITLE "0:"
    INDEX 01 00:16:59
  TRACK 16 AUDIO
    TITLE "4:cjc157_5767"
    INDEX 01 00:17:29
  TRACK 17 AUDIO
    TITLE "0:"
    INDEX 01 00:19:07
  TRACK 18 AUDIO
    TITLE "5:cjc157_5768"
    INDEX 01 00:19:56
  TRACK 19 AUDIO
    TITLE "0:"
    INDEX 01 00:23:03
  TRACK 20 AUDIO
    TITLE "3:cjc157_5769"
    INDEX 01 00:23:50
  TRACK 21 AUDIO
    TITLE "0:"
    INDEX 01 00:24:63
  TRACK 22 AUDIO
    TITLE "4:cjc157_5770"
    INDEX 01 00:25:33
  TRACK 23 AUDIO
    TITLE "0:"
    INDEX 01 00:26:67
  TRACK 24 AUDIO
    TITLE "5:cjc157_5771"
    INDEX 01 00:27:43
  TRACK 25 AUDIO
    TITLE "0:"
    INDEX 01 00:32:60
  TRACK 26 AUDIO
    TITLE "5:cjc157_5772"
    INDEX 01 00:33:28
  TRACK 27 AUDIO
    TITLE "0:"
    INDEX 01 00:38:02
  TRACK 28 AUDIO
    TITLE "3:cjc157_5773"
    INDEX 01 00:38:45
  TRACK 29 AUDIO
    TITLE "0:"
    INDEX 01 00:39:58
  TRACK 30 AUDIO
    TITLE "4:cjc157_5774"
    INDEX 01 00:40:28
  TRACK 31 AUDIO
    TITLE "0:"
    INDEX 01 00:41:61
  TRACK 32 AUDIO
    TITLE "5:cjc157_5775"
    INDEX 01 00:42:31
  TRACK 33 AUDIO
    TITLE "0:"
    INDEX 01 00:46:00
  TRACK 34 AUDIO
    TITLE "3:cjc157_5776"
    INDEX 01 00:46:43
  TRACK 35 AUDIO
    TITLE "0:"
    INDEX 01 00:47:70
  TRACK 36 AUDIO
    TITLE "4:cjc157_5777"
    INDEX 01 00:48:42
  TRACK 37 AUDIO
    TITLE "0:"
    INDEX 01 00:50:03
  TRACK 38 AUDIO
    TITLE "5:cjc157_5778"
    INDEX 01 00:50:60
  TRACK 39 AUDIO
    TITLE "0:"
    INDEX 01 00:53:58
  TRACK 40 AUDIO
    TITLE "3:cjc157_5779"
    INDEX 01 00:54:29
  TRACK 41 AUDIO
    TITLE "0:"
    INDEX 01 00:55:48
  TRACK 42 AUDIO
    TITLE "4:cjc157_5780"
    INDEX 01 00:56:16
  TRACK 43 AUDIO
    TITLE "0:"
    INDEX 01 00:57:46
  TRACK 44 AUDIO
    TITLE "5:cjc157_5781"
    INDEX 01 00:58:18
  TRACK 45 AUDIO
    TITLE "0:"
    INDEX 01 01:01:29
  TRACK 46 AUDIO
    TITLE "5:cjc157_5782"
    INDEX 01 01:02:01
  TRACK 47 AUDIO
    TITLE "0:"
    INDEX 01 01:04:70
  TRACK 48 AUDIO
    TITLE "3:cjc157_5783"
    INDEX 01 01:05:44
  TRACK 49 AUDIO
    TITLE "0:"
    INDEX 01 01:06:51
  TRACK 50 AUDIO
    TITLE "4:cjc157_5784"
    INDEX 01 01:07:19
  TRACK 51 AUDIO
    TITLE "0:"
    INDEX 01 01:08:52
  TRACK 52 AUDIO
    TITLE "5:cjc157_5785"
    INDEX 01 01:09:34
  TRACK 53 AUDIO
    TITLE "0:"
    INDEX 01 01:11:19
  TRACK 54 AUDIO
    TITLE "5:cjc157_5786"
    INDEX 01 01:11:66
  TRACK 55 AUDIO
    TITLE "0:"
    INDEX 01 01:14:66
  TRACK 56 AUDIO
    TITLE "3:cjc157_5787"
    INDEX 01 01:15:35
  TRACK 57 AUDIO
    TITLE "0:"
    INDEX 01 01:16:60
  TRACK 58 AUDIO
    TITLE "4:cjc157_5788"
    INDEX 01 01:17:33
  TRACK 59 AUDIO
    TITLE "0:"
    INDEX 01 01:18:74
  TRACK 60 AUDIO
    TITLE "5:cjc157_5789"
    INDEX 01 01:19:50
  TRACK 61 AUDIO
    TITLE "0:"
    INDEX 01 01:23:69
  TRACK 62 AUDIO
    TITLE "3:cjc157_5790"
    INDEX 01 01:24:47
  TRACK 63 AUDIO
    TITLE "0:"
    INDEX 01 01:26:17
  TRACK 64 AUDIO
    TITLE "4:cjc157_5791"
    INDEX 01 01:26:66
  TRACK 65 AUDIO
    TITLE "0:"
    INDEX 01 01:28:69
  TRACK 66 AUDIO
    TITLE "5:cjc157_5792"
    INDEX 01 01:29:45
  TRACK 67 AUDIO
    TITLE "0:"
    INDEX 01 01:35:61
